<svg width="30" height="38" viewBox="0 0 30 38" fill="none" xmlns="http://www.w3.org/2000/svg">
<path d="M28.2027 14.3085C28.0385 23.0478 20.0402 31.8693 16.4335 35.4076C15.9739 35.8609 15.3524 36.117 14.7034 36.1206C14.0544 36.1241 13.4301 35.8748 12.9655 35.4266C9.32039 31.901 1.20268 23.0625 1.20268 14.3085C1.24732 10.7957 2.68928 7.44172 5.21617 4.97325C7.74306 2.50478 11.1514 1.12061 14.7027 1.12061C18.254 1.12061 21.6623 2.50478 24.1892 4.97325C26.7161 7.44172 28.158 10.7957 28.2027 14.3085Z" fill="#FFFBF5" stroke="#94661C" stroke-width="2" stroke-miterlimit="10"/>
<rect x="6.04884" y="7.28418" width="16.9615" height="16.779" rx="8.38949" fill="#94661C"/>
<g clip-path="url(#clip0_1149_7330)">
<path d="M9.96674 11.7168V18.248L14.142 19.4232V12.9498L9.96674 11.7168Z" fill="white"/>
<path d="M14.8868 12.9306V19.4232L18.9953 18.1709L19.0586 11.7168L14.8868 12.9306Z" fill="#EFEFEF"/>
<g clip-path="url(#clip1_1149_7330)">
<path d="M16.7774 12.3823V14.4359L17.2738 13.6987L17.8107 14.1199V12.0664L16.7774 12.3823Z" fill="#94661C"/>
</g>
</g>
<defs>
<clipPath id="clip0_1149_7330">
<rect width="9.08864" height="7.70642" fill="white" transform="translate(9.96674 11.7168)"/>
</clipPath>
<clipPath id="clip1_1149_7330">
<rect width="1.03333" height="2.36947" fill="white" transform="translate(16.7774 12.0664)"/>
</clipPath>
</defs>
</svg>
