<svg width="44" height="57" viewBox="0 0 44 57" fill="none" xmlns="http://www.w3.org/2000/svg">
<path d="M42.9325 21.4815C42.6774 35.0541 30.2557 48.7545 24.6543 54.2497C23.9405 54.9536 22.9753 55.3514 21.9674 55.3569C20.9595 55.3624 19.9899 54.9753 19.2682 54.2792C13.6072 48.8036 1 35.077 1 21.4815C1.06932 16.0259 3.30877 10.817 7.23317 6.98338C11.1576 3.1497 16.4509 1 21.9662 1C27.4816 1 32.7749 3.1497 36.6993 6.98338C40.6237 10.817 42.8632 16.0259 42.9325 21.4815Z" fill="#8E672C" stroke="#FFFBF5" stroke-width="2" stroke-miterlimit="10"/>
<rect x="8.52637" y="10.5723" width="26.3422" height="26.0587" rx="13.0293" fill="#FFFBF5"/>
<g clip-path="url(#clip0_1402_10401)">
<path d="M14.611 17.4565V27.5998L21.0955 29.425V19.3715L14.611 17.4565Z" fill="#94661C"/>
<path d="M22.2522 19.3416V29.425L28.6329 27.4802L28.7312 17.4565L22.2522 19.3416Z" fill="#94661C"/>
<g clip-path="url(#clip1_1402_10401)">
<path d="M25.1883 18.4907V21.6799L25.9592 20.5351L26.7931 21.1893V18L25.1883 18.4907Z" fill="#FFFBF5"/>
</g>
</g>
<defs>
<clipPath id="clip0_1402_10401">
<rect width="14.1152" height="11.9685" fill="white" transform="translate(14.611 17.4565)"/>
</clipPath>
<clipPath id="clip1_1402_10401">
<rect width="1.60483" height="3.67992" fill="white" transform="translate(25.1883 18)"/>
</clipPath>
</defs>
</svg>
