<svg width="23" height="27" viewBox="0 0 23 27" fill="none" xmlns="http://www.w3.org/2000/svg">
<path d="M9.61224 16.311L12.4539 17.8182L6.6834 27.0002L5.02715 23.6068L9.61224 16.311Z" fill="#418ED6"/>
<path d="M9.61224 16.311L6.77058 14.8038L1.00008 23.9858L5.02715 23.6068L9.61224 16.311Z" fill="#2B63A6"/>
<path d="M13.6666 16.311L10.8249 17.8182L16.5954 27.0002L18.2517 23.6068L13.6666 16.311Z" fill="#2B63A6"/>
<path d="M13.6666 16.311L16.5082 14.8038L22.2787 23.9858L18.2517 23.6068L13.6666 16.311Z" fill="#418ED6"/>
<path d="M11.635 19.4753C17.2735 19.4753 21.9182 15.2666 21.9182 9.98765C21.9182 4.70869 17.2735 0.5 11.635 0.5C5.99644 0.5 1.35168 4.70869 1.35168 9.98765C1.35168 15.2666 5.99644 19.4753 11.635 19.4753Z" fill="#E3E3E3" stroke="#404040"/>
<ellipse cx="11.635" cy="9.98833" rx="7.63674" ry="7.01568" fill="#595959"/>
<mask id="mask0_1426_10684" style="mask-type:alpha" maskUnits="userSpaceOnUse" x="4" y="3" width="16" height="15">
<ellipse cx="12.0426" cy="10.7371" rx="7.65451" ry="7.032" fill="#C28B37"/>
</mask>
<g mask="url(#mask0_1426_10684)">
<ellipse cx="11.6351" cy="9.98708" rx="7.65451" ry="7.032" fill="url(#paint0_linear_1426_10684)"/>
</g>
<path d="M11.6759 4.61621L13.3271 7.43212L16.6295 7.78411L14.3618 9.95237L14.9783 13.064L11.6759 11.656L8.37354 13.064L8.99548 9.95237L6.72235 7.78411L10.0247 7.43212L11.6759 4.61621Z" fill="url(#paint1_linear_1426_10684)"/>
<defs>
<linearGradient id="paint0_linear_1426_10684" x1="11.6351" y1="2.95508" x2="11.6351" y2="17.0191" gradientUnits="userSpaceOnUse">
<stop stop-color="#9CA1A3"/>
<stop offset="1" stop-color="#9CA1A3" stop-opacity="0"/>
</linearGradient>
<linearGradient id="paint1_linear_1426_10684" x1="11.6759" y1="4.61621" x2="11.6759" y2="13.064" gradientUnits="userSpaceOnUse">
<stop stop-color="#F1F5F5"/>
<stop offset="0.0001" stop-color="white"/>
<stop offset="1" stop-color="#F1F5F5"/>
</linearGradient>
</defs>
</svg>
